# Alias OBJ Model File
# Exported from SketchUp, (c) 2000-2012 Trimble Navigation Limited
# File units = inches

mtllib Circle.mtl

g Mesh1 Model

usemtl FrontColor
v 235.827 -133.516 0
vt -235.827 -133.516
vn 0 0 -1
v 221.605 -155.988 0
vt -221.605 -155.988
v 205.249 -176.958 0
vt -205.249 -176.958
v 186.915 -196.224 0
vt -186.915 -196.224
v 166.782 -213.6 0
vt -166.782 -213.6
v 145.042 -228.918 0
vt -145.042 -228.918
v 121.906 -242.033 0
vt -121.906 -242.033
v 97.5957 -252.816 0
vt -97.5957 -252.816
v 72.3455 -261.165 0
vt -72.3455 -261.165
v 46.3985 -266.998 0
vt -46.3985 -266.998
v 20.0046 -270.261 0
vt -20.0046 -270.261
v -6.58188 -270.92 0
vt 6.58188 -270.92
v -33.105 -268.97 0
vt 33.105 -268.97
v -59.3093 -264.43 0
vt 59.3093 -264.43
v -84.9424 -257.344 0
vt 84.9424 -257.344
v -109.757 -247.779 0
vt 109.757 -247.779
v -133.516 -235.827 0
vt 133.516 -235.827
v -155.988 -221.605 0
vt 155.988 -221.605
v -176.958 -205.249 0
vt 176.958 -205.249
v -196.224 -186.915 0
vt 196.224 -186.915
v -213.6 -166.782 0
vt 213.6 -166.782
v -228.918 -145.042 0
vt 228.918 -145.042
v -242.033 -121.906 0
vt 242.033 -121.906
v -252.816 -97.5957 0
vt 252.816 -97.5957
v -261.165 -72.3455 0
vt 261.165 -72.3455
v -266.998 -46.3985 0
vt 266.998 -46.3985
v -270.261 -20.0046 0
vt 270.261 -20.0046
v -270.92 6.58188 0
vt 270.92 6.58188
v -268.97 33.105 0
vt 268.97 33.105
v -264.43 59.3093 0
vt 264.43 59.3093
v -257.344 84.9424 0
vt 257.344 84.9424
v -247.779 109.757 0
vt 247.779 109.757
v -235.827 133.516 0
vt 235.827 133.516
v -221.605 155.988 0
vt 221.605 155.988
v -205.249 176.958 0
vt 205.249 176.958
v -186.915 196.224 0
vt 186.915 196.224
v -166.782 213.6 0
vt 166.782 213.6
v -145.042 228.918 0
vt 145.042 228.918
v -121.906 242.033 0
vt 121.906 242.033
v -97.5957 252.816 0
vt 97.5957 252.816
v -72.3455 261.165 0
vt 72.3455 261.165
v -46.3985 266.998 0
vt 46.3985 266.998
v -20.0046 270.261 0
vt 20.0046 270.261
v 6.58188 270.92 0
vt -6.58188 270.92
v 33.105 268.97 0
vt -33.105 268.97
v 59.3093 264.43 0
vt -59.3093 264.43
v 84.9424 257.344 0
vt -84.9424 257.344
v 109.757 247.779 0
vt -109.757 247.779
v 133.516 235.827 0
vt -133.516 235.827
v 155.988 221.605 0
vt -155.988 221.605
v 176.958 205.249 0
vt -176.958 205.249
v 196.224 186.915 0
vt -196.224 186.915
v 213.6 166.782 0
vt -213.6 166.782
v 228.918 145.042 0
vt -228.918 145.042
v 242.033 121.906 0
vt -242.033 121.906
v 252.816 97.5957 0
vt -252.816 97.5957
v 261.165 72.3455 0
vt -261.165 72.3455
v 266.998 46.3985 0
vt -266.998 46.3985
v 270.261 20.0046 0
vt -270.261 20.0046
v 270.92 -6.58188 0
vt -270.92 -6.58188
v 268.97 -33.105 0
vt -268.97 -33.105
v 264.43 -59.3093 0
vt -264.43 -59.3093
v 257.344 -84.9424 0
vt -257.344 -84.9424
v 247.779 -109.757 0
vt -247.779 -109.757
f 1/1/1 2/2/1 3/3/1 4/4/1 5/5/1 6/6/1 7/7/1 8/8/1 9/9/1 10/10/1 11/11/1 12/12/1 13/13/1 14/14/1 15/15/1 16/16/1 17/17/1 18/18/1 19/19/1 20/20/1 21/21/1 22/22/1 23/23/1 24/24/1 25/25/1 26/26/1 27/27/1 28/28/1 29/29/1 30/30/1 31/31/1 32/32/1 33/33/1 34/34/1 35/35/1 36/36/1 37/37/1 38/38/1 39/39/1 40/40/1 41/41/1 42/42/1 43/43/1 44/44/1 45/45/1 46/46/1 47/47/1 48/48/1 49/49/1 50/50/1 51/51/1 52/52/1 53/53/1 54/54/1 55/55/1 56/56/1 57/57/1 58/58/1 59/59/1 60/60/1 61/61/1 62/62/1 63/63/1 64/64/1 

