# Alias OBJ Model File
# Exported from SketchUp, (c) 2000-2012 Trimble Navigation Limited
# File units = inches

mtllib CircleArrow.mtl

g Mesh1 Model

usemtl FrontColor
v 71.5338 0 69.7884
vt -71.5338 -69.7884
vn 0 -1 -0
v 87.1589 0 48.8961
vt -87.1589 -48.8961
v 99.9299 0 58.8287
vt -99.9299 -58.8287
v 93.5889 0 70.1106
vt -93.5889 -70.1106
v 72.254 0 91.9442
vt -72.254 -91.9442
v 45.9951 0 107.512
vt -45.9951 -107.512
v 16.6017 0 115.753
vt -16.6017 -115.753
v -13.9231 0 116.106
vt 13.9231 -116.106
v -43.4991 0 108.546
vt 43.4991 -108.546
v -70.1106 0 93.5889
vt 70.1106 -93.5889
v -91.9442 0 72.254
vt 91.9442 -72.254
v -107.512 0 45.9951
vt 107.512 -45.9951
v -115.753 0 16.6017
vt 115.753 -16.6017
v -116.106 0 -13.9231
vt 116.106 13.9231
v -108.546 0 -43.4991
vt 108.546 43.4991
v -93.5889 0 -70.1106
vt 93.5889 70.1106
v -72.254 0 -91.9442
vt 72.254 91.9442
v -45.9951 0 -107.512
vt 45.9951 107.512
v -16.6017 0 -115.753
vt 16.6017 115.753
v 13.9231 0 -116.106
vt -13.9231 116.106
v 43.4991 0 -108.546
vt -43.4991 108.546
v 70.1106 0 -93.5889
vt -70.1106 93.5889
v 91.9442 0 -72.254
vt -91.9442 72.254
v 107.512 0 -45.9951
vt -107.512 45.9951
v 115.753 0 -16.6017
vt -115.753 16.6017
v 115.931 0 -1.2342
vt -115.931 1.2342
v 107.93 0 -1.2342
vt -107.93 1.2342
v 99.9299 0 -1.2342
vt -99.9299 1.2342
v 96.2054 0 -27.0559
vt -96.2054 27.0559
v 85.9247 0 -51.0338
vt -85.9247 51.0338
v 69.7884 0 -71.5338
vt -69.7884 71.5338
v 48.8961 0 -87.1589
vt -48.8961 87.1589
v 24.6716 0 -96.8443
vt -24.6716 96.8443
v -1.2342 0 -99.9299
vt 1.2342 99.9299
v -27.0559 0 -96.2054
vt 27.0559 96.2054
v -51.0338 0 -85.9247
vt 51.0338 85.9247
v -71.5338 0 -69.7884
vt 71.5338 69.7884
v -87.1589 0 -48.8961
vt 87.1589 48.8961
v -96.8443 0 -24.6716
vt 96.8443 24.6716
v -99.9299 0 1.2342
vt 99.9299 -1.2342
v -96.2054 0 27.0559
vt 96.2054 -27.0559
v -85.9247 0 51.0338
vt 85.9247 -51.0338
v -69.7884 0 71.5338
vt 69.7884 -71.5338
v -48.8961 0 87.1589
vt 48.8961 -87.1589
v -24.6716 0 96.8443
vt 24.6716 -96.8443
v 1.2342 0 99.9299
vt -1.2342 -99.9299
v 27.0559 0 96.2054
vt -27.0559 -96.2054
v 51.0338 0 85.9247
vt -51.0338 -85.9247
f 1/1/1 2/2/1 3/3/1 4/4/1 5/5/1 6/6/1 7/7/1 8/8/1 9/9/1 10/10/1 11/11/1 12/12/1 13/13/1 14/14/1 15/15/1 16/16/1 17/17/1 18/18/1 19/19/1 20/20/1 21/21/1 22/22/1 23/23/1 24/24/1 25/25/1 26/26/1 27/27/1 28/28/1 29/29/1 30/30/1 31/31/1 32/32/1 33/33/1 34/34/1 35/35/1 36/36/1 37/37/1 38/38/1 39/39/1 40/40/1 41/41/1 42/42/1 43/43/1 44/44/1 45/45/1 46/46/1 47/47/1 48/48/1 

v 147.93 0 -1.2342
vt -147.93 1.2342
v 107.93 0 38.7658
vt -107.93 -38.7658
f 26/26/1 49/49/1 50/50/1 27/27/1 

v 67.9302 0 -1.2342
vt -67.9302 1.2342
f 27/27/1 50/50/1 51/51/1 28/28/1 

