mtllib energy.mtl
o energy.obj
v -0.537681 0.941065 0.000000
v 0.462319 0.941065 0.000000
v 0.457964 2.381454 0.000000
v 1.547011 2.381454 0.000000
v -0.911763 0.428290 0.000000
v 0.088237 0.428290 0.000000
v 1.326537 0.941065 0.000000
v 0.885303 0.428290 0.000000
v -1.547011 -2.381454 0.000000
vn 0.000000 0.000000 1.000000
vn 0.000000 0.000000 1.000000
vn 0.000000 0.000000 1.000000
vn 0.000000 0.000000 1.000000
vn 0.000000 0.000000 1.000000
vn 0.000000 0.000000 1.000000
vn 0.000000 0.000000 1.000000
vn 0.000000 0.000000 1.000000
vn 0.000000 0.000000 1.000000
vt 0.995049 0.004950
vt 0.995049 0.004950
vt 0.004950 0.004950
vt 0.004950 0.004950
vt 0.004950 0.004950
vt 0.995049 0.004950
vt 0.995049 0.004950
vt 0.995049 0.004950
vt 0.995049 0.004950
g Cube
usemtl Default
f 2/1/2 4/2/4 3/3/3 1/4/1 
f 2/1/2 1/4/1 5/5/5 6/6/6 
f 2/1/2 6/6/6 8/7/8 7/8/7 
f 8/7/8 6/6/6 9/9/9 
